<mxfile host="app.diagrams.net" modified="2021-05-06T08:11:22.411Z" agent="5.0 (Windows NT 10.0; Win64; x64) AppleWebKit/537.36 (KHTML, like Gecko) Chrome/90.0.4430.93 Safari/537.36" etag="VwG7qy4cGXLcuUUDB44n" version="14.6.10" type="github">
  <diagram id="poB41aGNkoLaefcK8INf" name="draw">
    <mxGraphModel dx="2249" dy="706" grid="1" gridSize="10" guides="1" tooltips="1" connect="1" arrows="1" fold="1" page="1" pageScale="1" pageWidth="827" pageHeight="1169" math="0" shadow="0">
      <root>
        <mxCell id="0" />
        <mxCell id="1" parent="0" />
        <mxCell id="Q-0F0rlcxytKZ2KuEhDJ-3" value="" style="edgeStyle=orthogonalEdgeStyle;rounded=0;orthogonalLoop=1;jettySize=auto;html=1;" parent="1" source="Q-0F0rlcxytKZ2KuEhDJ-1" target="Q-0F0rlcxytKZ2KuEhDJ-2" edge="1">
          <mxGeometry relative="1" as="geometry" />
        </mxCell>
        <mxCell id="Q-0F0rlcxytKZ2KuEhDJ-5" value="" style="edgeStyle=orthogonalEdgeStyle;rounded=0;orthogonalLoop=1;jettySize=auto;html=1;" parent="1" source="Q-0F0rlcxytKZ2KuEhDJ-1" target="Q-0F0rlcxytKZ2KuEhDJ-4" edge="1">
          <mxGeometry relative="1" as="geometry" />
        </mxCell>
        <mxCell id="Q-0F0rlcxytKZ2KuEhDJ-1" value="案件录入" style="rounded=1;whiteSpace=wrap;html=1;" parent="1" vertex="1">
          <mxGeometry x="120" y="150" width="120" height="60" as="geometry" />
        </mxCell>
        <mxCell id="Q-0F0rlcxytKZ2KuEhDJ-6" style="edgeStyle=orthogonalEdgeStyle;rounded=0;orthogonalLoop=1;jettySize=auto;html=1;exitX=0.5;exitY=1;exitDx=0;exitDy=0;" parent="1" source="Q-0F0rlcxytKZ2KuEhDJ-2" target="Q-0F0rlcxytKZ2KuEhDJ-4" edge="1">
          <mxGeometry relative="1" as="geometry" />
        </mxCell>
        <mxCell id="Q-0F0rlcxytKZ2KuEhDJ-13" value="" style="edgeStyle=orthogonalEdgeStyle;rounded=0;orthogonalLoop=1;jettySize=auto;html=1;" parent="1" source="Q-0F0rlcxytKZ2KuEhDJ-2" target="Q-0F0rlcxytKZ2KuEhDJ-12" edge="1">
          <mxGeometry relative="1" as="geometry" />
        </mxCell>
        <mxCell id="Q-0F0rlcxytKZ2KuEhDJ-2" value="行政处罚" style="rounded=1;whiteSpace=wrap;html=1;" parent="1" vertex="1">
          <mxGeometry x="120" y="260" width="120" height="60" as="geometry" />
        </mxCell>
        <mxCell id="Q-0F0rlcxytKZ2KuEhDJ-9" value="" style="edgeStyle=orthogonalEdgeStyle;rounded=0;orthogonalLoop=1;jettySize=auto;html=1;" parent="1" source="Q-0F0rlcxytKZ2KuEhDJ-4" target="Q-0F0rlcxytKZ2KuEhDJ-8" edge="1">
          <mxGeometry relative="1" as="geometry" />
        </mxCell>
        <mxCell id="Q-0F0rlcxytKZ2KuEhDJ-4" value="案件移送" style="rounded=1;whiteSpace=wrap;html=1;" parent="1" vertex="1">
          <mxGeometry x="250" y="390" width="120" height="60" as="geometry" />
        </mxCell>
        <mxCell id="Q-0F0rlcxytKZ2KuEhDJ-11" value="" style="edgeStyle=orthogonalEdgeStyle;rounded=0;orthogonalLoop=1;jettySize=auto;html=1;" parent="1" source="Q-0F0rlcxytKZ2KuEhDJ-8" target="Q-0F0rlcxytKZ2KuEhDJ-10" edge="1">
          <mxGeometry relative="1" as="geometry" />
        </mxCell>
        <mxCell id="Q-0F0rlcxytKZ2KuEhDJ-8" value="公安受理" style="rounded=1;whiteSpace=wrap;html=1;" parent="1" vertex="1">
          <mxGeometry x="250" y="480" width="120" height="60" as="geometry" />
        </mxCell>
        <mxCell id="Q-0F0rlcxytKZ2KuEhDJ-18" value="" style="edgeStyle=orthogonalEdgeStyle;rounded=0;orthogonalLoop=1;jettySize=auto;html=1;" parent="1" source="Q-0F0rlcxytKZ2KuEhDJ-10" target="Q-0F0rlcxytKZ2KuEhDJ-17" edge="1">
          <mxGeometry relative="1" as="geometry" />
        </mxCell>
        <mxCell id="Q-0F0rlcxytKZ2KuEhDJ-20" value="" style="edgeStyle=orthogonalEdgeStyle;rounded=0;orthogonalLoop=1;jettySize=auto;html=1;" parent="1" source="Q-0F0rlcxytKZ2KuEhDJ-10" target="Q-0F0rlcxytKZ2KuEhDJ-19" edge="1">
          <mxGeometry relative="1" as="geometry" />
        </mxCell>
        <mxCell id="Q-0F0rlcxytKZ2KuEhDJ-10" value="公安立案" style="rounded=1;whiteSpace=wrap;html=1;" parent="1" vertex="1">
          <mxGeometry x="250" y="580" width="120" height="60" as="geometry" />
        </mxCell>
        <mxCell id="Q-0F0rlcxytKZ2KuEhDJ-14" style="edgeStyle=orthogonalEdgeStyle;rounded=0;orthogonalLoop=1;jettySize=auto;html=1;exitX=0.5;exitY=1;exitDx=0;exitDy=0;entryX=0;entryY=0.5;entryDx=0;entryDy=0;" parent="1" source="Q-0F0rlcxytKZ2KuEhDJ-12" target="Q-0F0rlcxytKZ2KuEhDJ-4" edge="1">
          <mxGeometry relative="1" as="geometry" />
        </mxCell>
        <mxCell id="Q-0F0rlcxytKZ2KuEhDJ-16" value="" style="edgeStyle=orthogonalEdgeStyle;rounded=0;orthogonalLoop=1;jettySize=auto;html=1;" parent="1" source="Q-0F0rlcxytKZ2KuEhDJ-12" target="Q-0F0rlcxytKZ2KuEhDJ-15" edge="1">
          <mxGeometry relative="1" as="geometry" />
        </mxCell>
        <mxCell id="Q-0F0rlcxytKZ2KuEhDJ-12" value="移送监督" style="rounded=1;whiteSpace=wrap;html=1;" parent="1" vertex="1">
          <mxGeometry x="-30" y="260" width="120" height="60" as="geometry" />
        </mxCell>
        <mxCell id="Q-0F0rlcxytKZ2KuEhDJ-15" value="结束" style="rounded=1;whiteSpace=wrap;html=1;" parent="1" vertex="1">
          <mxGeometry x="-180" y="260" width="120" height="60" as="geometry" />
        </mxCell>
        <mxCell id="Q-0F0rlcxytKZ2KuEhDJ-26" style="edgeStyle=orthogonalEdgeStyle;rounded=0;orthogonalLoop=1;jettySize=auto;html=1;entryX=1;entryY=0.5;entryDx=0;entryDy=0;" parent="1" source="Q-0F0rlcxytKZ2KuEhDJ-17" target="Q-0F0rlcxytKZ2KuEhDJ-19" edge="1">
          <mxGeometry relative="1" as="geometry">
            <Array as="points">
              <mxPoint x="480" y="700" />
            </Array>
          </mxGeometry>
        </mxCell>
        <mxCell id="Q-0F0rlcxytKZ2KuEhDJ-28" value="" style="edgeStyle=orthogonalEdgeStyle;rounded=0;orthogonalLoop=1;jettySize=auto;html=1;" parent="1" source="Q-0F0rlcxytKZ2KuEhDJ-17" target="Q-0F0rlcxytKZ2KuEhDJ-27" edge="1">
          <mxGeometry relative="1" as="geometry" />
        </mxCell>
        <mxCell id="Q-0F0rlcxytKZ2KuEhDJ-17" value="立案监督" style="rounded=1;whiteSpace=wrap;html=1;" parent="1" vertex="1">
          <mxGeometry x="413.5" y="580" width="120" height="60" as="geometry" />
        </mxCell>
        <mxCell id="Q-0F0rlcxytKZ2KuEhDJ-22" value="" style="edgeStyle=orthogonalEdgeStyle;rounded=0;orthogonalLoop=1;jettySize=auto;html=1;" parent="1" source="Q-0F0rlcxytKZ2KuEhDJ-19" target="Q-0F0rlcxytKZ2KuEhDJ-21" edge="1">
          <mxGeometry relative="1" as="geometry" />
        </mxCell>
        <mxCell id="Q-0F0rlcxytKZ2KuEhDJ-19" value="移送审查起诉" style="rounded=1;whiteSpace=wrap;html=1;" parent="1" vertex="1">
          <mxGeometry x="250" y="670" width="120" height="60" as="geometry" />
        </mxCell>
        <mxCell id="Q-0F0rlcxytKZ2KuEhDJ-24" value="" style="edgeStyle=orthogonalEdgeStyle;rounded=0;orthogonalLoop=1;jettySize=auto;html=1;" parent="1" source="Q-0F0rlcxytKZ2KuEhDJ-21" target="Q-0F0rlcxytKZ2KuEhDJ-23" edge="1">
          <mxGeometry relative="1" as="geometry" />
        </mxCell>
        <mxCell id="Q-0F0rlcxytKZ2KuEhDJ-21" value="提起公诉" style="rounded=1;whiteSpace=wrap;html=1;" parent="1" vertex="1">
          <mxGeometry x="250" y="760" width="120" height="60" as="geometry" />
        </mxCell>
        <mxCell id="Q-0F0rlcxytKZ2KuEhDJ-23" value="判决结果录入" style="rounded=1;whiteSpace=wrap;html=1;" parent="1" vertex="1">
          <mxGeometry x="250" y="860" width="120" height="60" as="geometry" />
        </mxCell>
        <mxCell id="Q-0F0rlcxytKZ2KuEhDJ-27" value="结束" style="rounded=1;whiteSpace=wrap;html=1;" parent="1" vertex="1">
          <mxGeometry x="570" y="580" width="120" height="60" as="geometry" />
        </mxCell>
      </root>
    </mxGraphModel>
  </diagram>
</mxfile>
